<svg width="36" height="40" viewBox="0 0 36 40" fill="none" xmlns="http://www.w3.org/2000/svg">
<path d="M30.1471 27.9254C28.6576 27.5623 27.1692 27.1918 25.6646 26.8923C24.7966 26.7199 23.9269 26.5637 23.0499 26.4443C22.7118 26.398 22.3782 26.3238 22.0926 26.1185C21.9247 25.998 21.8349 25.839 21.8728 25.6226C21.9241 25.3297 22.0982 25.1054 22.3252 24.9437C23.3004 24.2519 24.2861 23.5752 25.2685 22.8941C26.1823 22.2598 27.0978 21.6294 28.0099 20.9934C28.1984 20.8623 28.3842 20.7507 28.6252 20.8216C28.7267 20.859 28.8288 20.8601 28.9298 20.8205C29.5334 20.7524 30.0076 20.3547 29.8335 19.6897C29.7331 19.3064 29.4782 19.0983 29.105 19.1285C28.7831 19.1552 28.4874 19.2724 28.2196 19.437C27.4632 19.9039 26.7167 20.3887 25.9664 20.8662C25.1648 21.3767 24.362 21.8854 23.5615 22.3987C22.7726 22.9058 21.9866 23.4168 21.2 23.9261C21.1654 23.949 21.137 23.9507 21.1018 23.9356C21.5102 22.7875 21.9197 21.6405 22.3275 20.493C22.9802 18.6587 23.6312 16.8239 24.2833 14.9897C24.9227 13.1911 25.5592 11.3914 26.2041 9.59512C26.9622 7.48527 27.7254 5.37653 28.4913 3.26948C28.6135 2.93253 28.7033 2.57774 28.9013 2.27482C29.1786 1.85195 29.4101 1.41402 29.4547 0.901904C29.4821 0.59452 29.4363 0.28546 29.1591 0.104154C28.8333 -0.110624 28.498 0.0238313 28.271 0.351298C28.0428 0.679323 27.9374 1.05421 27.9413 1.45587C27.9424 1.60929 27.9117 1.75432 27.8386 1.89044C27.8593 1.96966 27.8213 2.03605 27.7912 2.10355C27.7549 2.22349 27.7192 2.34287 27.6824 2.46281C27.6651 2.51302 27.6473 2.56324 27.63 2.61344C27.5965 2.72613 27.563 2.83881 27.5296 2.95094C27.515 2.99278 27.5201 3.04076 27.4849 3.07534C27.4503 3.19249 27.4152 3.30965 27.3812 3.4268C27.3672 3.47087 27.3689 3.52053 27.3343 3.55735L27.2305 3.9088L27.1775 4.05942C27.1441 4.17211 27.1106 4.28425 27.0771 4.39694C27.0531 4.46834 27.028 4.53974 27.0035 4.61171C26.9856 4.72384 26.9499 4.82983 26.9053 4.93359C26.9031 4.98938 26.8841 5.03959 26.8562 5.08701C26.8294 5.1785 26.8027 5.26998 26.7759 5.36147C26.7586 5.40945 26.7424 5.45799 26.7251 5.50596C26.6989 5.64097 26.6548 5.77095 26.6035 5.89814C26.6002 5.95616 26.5818 6.00972 26.5505 6.05825C26.5332 6.18266 26.4836 6.29814 26.4451 6.4164C26.4222 6.48614 26.3999 6.55531 26.3764 6.62504C26.3491 6.71598 26.3212 6.80747 26.2939 6.89784L26.2258 7.10704C26.1985 7.19797 26.1706 7.28946 26.1433 7.38095C26.1276 7.42167 26.1338 7.47077 26.097 7.5048C26.0813 7.6292 26.0311 7.74412 25.9926 7.86239C25.9759 7.90367 25.9826 7.95332 25.9463 7.98679C25.9196 8.14132 25.861 8.28748 25.8125 8.43531C25.798 8.4766 25.803 8.52513 25.7684 8.55916L25.6613 8.91731C25.6445 8.96529 25.6284 9.01382 25.6116 9.0618C25.5781 9.17448 25.5447 9.28662 25.5112 9.39931C25.4973 9.43836 25.4839 9.47685 25.4699 9.51646C25.4337 9.63807 25.3963 9.75969 25.36 9.88186C25.3444 9.92258 25.3511 9.97223 25.3154 10.0057C25.2869 10.1474 25.2423 10.2841 25.1876 10.4174C25.1871 10.4738 25.167 10.524 25.1402 10.5719C25.119 10.6846 25.0839 10.794 25.037 10.8994C25.0359 10.958 25.0153 11.0099 24.9863 11.0601C24.96 11.1488 24.9338 11.238 24.9076 11.3267C24.8981 11.4299 24.8518 11.4885 24.7391 11.4684L24.6236 11.4891C24.5712 11.4946 24.5199 11.5002 24.4674 11.5047C24.4429 11.5264 24.4133 11.5281 24.3826 11.5231C24.3503 11.5259 24.3185 11.5287 24.2872 11.5315C24.0507 11.5878 23.8092 11.6112 23.5693 11.643C23.5375 11.6458 23.5051 11.6486 23.4739 11.6514C23.2468 11.705 23.0159 11.7284 22.7855 11.758C22.7342 11.7635 22.6817 11.7697 22.6298 11.7758C22.6042 11.7953 22.5757 11.7981 22.5445 11.7937C22.5127 11.7965 22.4814 11.7992 22.4491 11.8026C22.1517 11.8656 21.8505 11.8991 21.5504 11.9404C21.4979 11.946 21.4466 11.9515 21.3947 11.9571C21.3763 11.9621 21.3573 11.9666 21.3389 11.9716C21.2876 11.9772 21.2352 11.9828 21.1833 11.9884C20.8965 12.0508 20.6048 12.0826 20.3147 12.1222C20.2623 12.1278 20.2109 12.1334 20.1585 12.139C19.932 12.1931 19.7005 12.2154 19.4701 12.2455C19.4288 12.2494 19.387 12.2539 19.3457 12.2584C19.32 12.2784 19.2904 12.2801 19.2603 12.2757L19.1649 12.2846C18.9379 12.3376 18.7069 12.3621 18.4765 12.3911C18.4252 12.3973 18.3728 12.4028 18.3209 12.409C18.2924 12.4146 18.2645 12.4207 18.2355 12.4268C18.2037 12.4296 18.1725 12.4324 18.1401 12.4358C17.9036 12.491 17.6615 12.5139 17.4216 12.5473L17.2966 12.5591C17.2788 12.5641 17.2604 12.5685 17.2414 12.5736C17.1789 12.5825 17.117 12.5909 17.0551 12.5998C16.9932 12.578 17.0311 12.5473 17.0484 12.5194L17.0478 12.5183L17.093 12.3766C17.1187 12.3097 17.1432 12.2427 17.1678 12.1758C17.1934 12.1022 17.2185 12.0285 17.2436 11.9549C17.2693 11.8879 17.2944 11.8221 17.3201 11.7552C17.3346 11.7111 17.3491 11.667 17.3636 11.623C17.3892 11.5555 17.4144 11.4891 17.44 11.4221C17.4646 11.3485 17.4902 11.2749 17.5159 11.2012C17.5415 11.1343 17.5666 11.0679 17.5918 11.0009C17.6163 10.9273 17.642 10.8531 17.6665 10.7789L17.7429 10.5792C17.7675 10.505 17.7926 10.4314 17.8166 10.3572C17.8422 10.2902 17.8673 10.2233 17.893 10.1563C17.9276 10.0526 17.9627 9.9488 17.9973 9.84504C18.0185 9.77029 18.0347 9.69386 18.0777 9.62691C18.2528 9.09527 18.4285 8.56306 18.6043 8.03086C18.6283 7.95946 18.6534 7.88805 18.6774 7.81609C18.703 7.72962 18.7276 7.64203 18.7521 7.555C18.7649 7.51372 18.7789 7.47244 18.7917 7.43116C18.8408 7.25989 18.8888 7.08863 18.9373 6.91737C18.949 6.87776 18.9608 6.83815 18.9725 6.79854C19.0344 6.53857 19.0963 6.27861 19.1582 6.01865C19.1638 5.97681 19.1694 5.93552 19.1755 5.89368L19.1939 5.80777C19.1973 5.76649 19.2006 5.72464 19.2034 5.68336C19.204 5.62813 19.2057 5.57346 19.2057 5.51824C19.2051 5.29397 19.1621 5.23987 18.9485 5.17627C18.6629 5.09148 18.4425 5.21532 18.2339 5.38715C18.1245 5.51434 18.0235 5.6471 17.9789 5.81335C17.9399 5.92157 17.9014 6.0298 17.8618 6.13859C17.8361 6.20442 17.811 6.27136 17.7853 6.33718C17.7798 6.39743 17.7597 6.45266 17.7268 6.50287C17.71 6.55419 17.6938 6.60552 17.6771 6.65628C17.6481 6.73494 17.6202 6.81305 17.5912 6.89171C17.57 6.95419 17.5477 7.01611 17.5265 7.07859C17.493 7.16785 17.4595 7.2571 17.4261 7.34748C17.4144 7.40996 17.3998 7.47188 17.3613 7.52488C17.3268 7.6253 17.2933 7.72571 17.2587 7.82557C17.233 7.89307 17.2085 7.95946 17.1828 8.0264C17.1583 8.10004 17.1332 8.17423 17.1081 8.24787C17.0824 8.31482 17.0579 8.3812 17.0322 8.4487C17.0211 8.5162 17.0004 8.58148 16.9625 8.63894C16.9513 8.7215 16.9206 8.79737 16.8805 8.86933C16.8749 8.92903 16.8543 8.98369 16.8236 9.03446C16.8052 9.12428 16.7745 9.21074 16.731 9.29164L16.6562 9.51311C16.6317 9.58006 16.606 9.647 16.5803 9.71394C16.5636 9.8032 16.5324 9.88799 16.4905 9.96777C16.4838 9.99957 16.4894 10.0353 16.4571 10.057C16.3472 10.3622 16.2361 10.6684 16.1262 10.9736C15.9042 11.5912 15.68 12.2076 15.4641 12.8263C15.4412 12.891 15.4172 12.9127 15.3558 12.9233C15.0713 12.9696 14.7862 13.0182 14.5023 13.0684C13.6298 13.2229 12.7651 13.4143 11.9043 13.624C10.3602 14 8.82546 14.4095 7.29803 14.8469C6.51311 15.0717 5.72708 15.2909 4.94551 15.5241C3.83201 15.8572 2.72131 16.1986 1.61004 16.5394C1.14366 16.6822 0.677287 16.8262 0.26893 17.109C0.0123124 17.2864 -0.0802894 17.5469 0.0775864 17.755C0.202548 17.9201 0.374925 18.0378 0.597513 18.0395C0.778262 18.0406 0.959008 18.0367 1.1392 18.0356C1.15426 18.035 1.16933 18.0351 1.18439 18.0345L1.22511 18.0311C1.24798 18.0133 1.27197 18.0133 1.29708 18.0256C1.52636 18.0194 1.75508 18.0133 1.98436 18.0072C2.07697 18.0183 2.16958 18.03 2.25995 17.996C2.91321 17.9731 3.56647 17.9731 4.21973 17.9938C4.29951 18.0311 4.38262 18.0155 4.46519 18.0077C4.49531 18.0072 4.52823 17.9982 4.55445 18.0077C4.75919 18.0841 4.97452 18.0183 5.18651 18.059C5.32877 18.0858 5.48999 18.0864 5.63838 18.1059C5.88272 18.1377 6.11814 18.218 6.35579 18.295C6.61018 18.3776 6.87852 18.4328 7.13458 18.5221C7.86817 18.7787 8.48237 19.2116 8.96604 19.8169C9.27621 20.2063 9.49825 20.652 9.65445 21.1245C9.83073 21.6545 9.93617 22.199 9.97913 22.7585C10.0081 23.1395 10.0422 23.5194 10.0377 23.9016C10.0355 24.0606 9.97913 24.2168 10.0059 24.3763C10.0394 24.5766 9.98862 24.7729 9.96853 24.9671C9.93841 25.26 9.90381 25.5551 9.86197 25.8479C9.81288 26.1916 9.76547 26.5364 9.69852 26.875C9.5942 27.4044 9.48263 27.9333 9.34762 28.4565C9.20202 29.0228 9.0581 29.589 8.89185 30.1491C8.7323 30.6841 8.57331 31.2191 8.39758 31.7485C8.16774 32.4402 7.92284 33.1275 7.68185 33.8159C7.51728 34.2829 7.3488 34.7492 7.17753 35.2139C6.99958 35.6965 6.81101 36.1751 6.63473 36.6588C6.43947 37.1938 6.24199 37.7277 6.06571 38.2694C5.92345 38.7067 5.8593 39.1502 5.9201 39.6027C5.95246 39.8448 6.12484 40.0746 6.45063 39.977C6.76973 39.8805 6.99009 39.6629 7.10166 39.3689C7.48659 38.3575 7.85088 37.3372 8.22241 36.3202C8.90468 34.4552 9.58751 32.5898 10.2703 30.7248C10.9833 28.7751 11.6968 26.8253 12.4103 24.875C12.9715 23.3415 13.5338 21.8084 14.0945 20.2743C14.9307 17.9865 15.767 15.6976 16.6004 13.4081C16.6261 13.3373 16.6596 13.3083 16.7337 13.2982C17.2118 13.2335 17.6877 13.1526 18.1664 13.0896C18.8163 13.0048 19.4628 12.8949 20.1111 12.7961C20.501 12.7365 20.891 12.6762 21.2809 12.6182C21.6859 12.5568 22.0909 12.4966 22.4971 12.4369C22.897 12.3777 23.2976 12.3136 23.6993 12.2634C23.9821 12.2277 24.2599 12.1412 24.5561 12.1658C24.4758 12.39 24.3972 12.6093 24.3179 12.8279C24.1104 13.4092 23.9034 13.99 23.6942 14.5707C23.5414 14.9958 23.3863 15.4209 23.2329 15.8465C23.0348 16.3966 22.8379 16.9483 22.6382 17.4984C22.4574 17.9938 22.27 18.4858 22.0915 18.9818C21.9353 19.413 21.7902 19.8492 21.634 20.2799C21.4578 20.7675 21.2725 21.2523 21.0946 21.7393C20.9222 22.2123 20.756 22.6882 20.583 23.1613C20.3816 23.713 20.1724 24.2619 19.9694 24.8126C19.8081 25.2499 19.6553 25.6895 19.4941 26.1263C19.3172 26.6061 19.1337 27.0836 18.9557 27.5628C18.7543 28.1034 18.5596 28.6473 18.3549 29.1873C18.1385 29.7575 17.9019 30.3209 17.6938 30.8944C17.4579 31.5477 17.2024 32.1931 16.9502 32.8391C16.6434 33.6268 16.3036 34.4011 15.9985 35.1888C15.7553 35.8187 15.5115 36.4474 15.2833 37.0828C15.0685 37.6775 14.8867 38.2816 14.7165 38.8903C14.649 39.1307 14.6289 39.3533 14.7974 39.5614C14.919 39.7115 15.0585 39.8152 15.2643 39.8202C15.5712 39.8269 15.8323 39.7042 16.0772 39.5452C16.6858 39.1514 17.1544 38.6203 17.5354 38.0088C17.7167 37.7182 17.8746 37.417 17.9103 37.0688C17.9387 36.791 17.806 36.5841 17.517 36.5718C17.3474 36.564 17.1773 36.5657 17.0093 36.6092C16.9686 36.6203 16.9195 36.6622 16.8844 36.6203C16.852 36.5818 16.8972 36.5355 16.91 36.4981C17.3954 35.0299 17.8857 33.5638 18.3733 32.096C18.6902 31.141 19.0031 30.1848 19.3189 29.2297C19.5532 28.5201 19.7897 27.8105 20.0274 27.1015C20.0419 27.0568 20.0279 26.9782 20.1166 26.9955C20.4039 27.0496 20.6907 27.1071 20.9791 27.16C21.1716 27.1952 21.3663 27.222 21.5593 27.2566C21.7568 27.2917 21.9531 27.333 22.1512 27.3687C22.4011 27.4133 22.651 27.4546 22.9015 27.4964C23.1671 27.5405 23.4332 27.5829 23.6987 27.6287C23.9587 27.6733 24.2186 27.7201 24.4786 27.7664C24.7447 27.8133 25.0102 27.8591 25.2758 27.9065C25.4744 27.9422 25.6719 27.9807 25.8716 28.013C26.1354 28.0554 26.4016 28.0917 26.666 28.1341C26.9449 28.1787 27.2238 28.2284 27.5028 28.2763C27.7778 28.3243 28.0517 28.3768 28.3273 28.4219C28.5499 28.4582 28.7742 28.4872 28.9979 28.5196C29.1714 28.5452 29.3437 28.572 29.5172 28.5932C29.7482 28.6222 29.9791 28.6406 30.2023 28.5514C30.339 28.4961 30.4031 28.389 30.392 28.2451C30.3791 28.0448 30.3139 27.9662 30.1471 27.9254ZM15.4311 15.036C14.1302 19.0281 12.803 23.0123 11.4212 26.9776C10.5799 29.3887 9.73199 31.7981 8.77358 34.1657C8.5337 34.7587 8.28601 35.3484 7.98532 35.9146C7.91503 36.0474 7.84083 36.1785 7.74041 36.2923C7.6969 36.3414 7.64669 36.3983 7.57752 36.3804C7.4944 36.3598 7.48938 36.2739 7.48659 36.2064C7.47711 35.9492 7.52787 35.6976 7.58366 35.4477C7.86315 34.1958 8.25811 32.9775 8.6648 31.7636C9.36771 29.6632 10.0946 27.5718 10.7958 25.4708C11.1099 24.5292 11.3537 23.5674 11.3682 22.5644C11.3928 20.8244 10.6536 19.4939 9.19644 18.5583C8.34291 18.0099 7.39677 17.6903 6.41381 17.4677C5.39348 17.2367 4.35697 17.1285 3.31264 17.0783C3.29089 17.0772 3.26801 17.075 3.24235 17.0493C3.54974 16.969 3.85711 16.8875 4.1645 16.8072C7.99647 15.8086 11.8284 14.81 15.6604 13.8115C15.7095 13.7986 15.7581 13.7886 15.8071 13.778C15.8122 13.7836 15.8172 13.7886 15.8228 13.7936C15.7168 14.2159 15.5661 14.6237 15.4311 15.036Z" fill="#0F0F0F"/>
<path d="M26.7993 11.3228C26.6108 11.3468 26.4216 11.368 26.2342 11.3948C26.1076 11.4126 25.9508 11.58 25.9798 11.6787C26.0161 11.8031 26.1193 11.8561 26.2465 11.8589C26.3067 11.86 26.367 11.8589 26.4272 11.8589C26.4272 11.8622 26.4272 11.8656 26.4278 11.8695C26.6995 11.8455 26.9711 11.8226 27.2428 11.7964C27.5324 11.7691 27.8225 11.7429 28.112 11.7077C28.6475 11.6425 29.1825 11.5683 29.7192 11.5035C30.1895 11.4472 30.6614 11.4031 31.1317 11.3462C31.6745 11.2804 32.2162 11.204 32.7584 11.1354C33.1752 11.0818 33.5924 11.0338 34.0086 10.9797C34.4343 10.9245 34.8588 10.8592 35.285 10.814C35.4261 10.7984 35.4981 10.7309 35.5215 10.6082C35.5461 10.4787 35.478 10.3856 35.3592 10.3365C35.2209 10.2785 35.0753 10.2941 34.9308 10.3103C34.451 10.3661 33.9701 10.4207 33.4892 10.4782C32.9498 10.5423 32.4109 10.6082 31.8714 10.6757C31.2885 10.7488 30.7049 10.8257 30.122 10.8994C29.6076 10.9646 29.0927 11.0266 28.5772 11.0924C27.9853 11.1683 27.3923 11.2458 26.7993 11.3228Z" fill="#0F0F0F"/>
</svg>
