<svg width="24" height="24" viewBox="0 0 24 24" fill="none" xmlns="http://www.w3.org/2000/svg">
<path d="M3.16098 4.46904C4.32105 3.30877 5.87698 2.63013 7.51658 2.56929C9.15618 2.50846 10.7581 3.06993 12.001 4.14104C13.2427 3.07171 14.8426 2.51087 16.4802 2.5708C18.1178 2.63074 19.6724 3.30701 20.8327 4.46425C21.9929 5.62148 22.6733 7.17427 22.7375 8.81173C22.8017 10.4492 22.2451 12.0505 21.179 13.295L13.414 21.085C13.0572 21.4419 12.5788 21.6507 12.0745 21.6697C11.5702 21.6886 11.0775 21.5162 10.695 21.187L10.585 21.086L2.82098 13.295C1.75547 12.0516 1.19856 10.4517 1.2616 8.81542C1.32463 7.1791 2.00297 5.62686 3.16098 4.46904ZM4.57498 5.88304C3.75722 6.70103 3.28583 7.80249 3.25865 8.95881C3.23146 10.1151 3.65057 11.2375 4.42898 12.093L4.57498 12.247L12 19.672L17.303 14.368L13.768 10.833L12.708 11.893C12.4294 12.1717 12.0988 12.3928 11.7348 12.5436C11.3708 12.6945 10.9807 12.7722 10.5867 12.7723C9.79097 12.7725 9.02777 12.4566 8.46498 11.894C7.90219 11.3315 7.58591 10.5685 7.58573 9.77275C7.58554 8.97703 7.90146 8.21383 8.46398 7.65104L10.566 5.54804C9.72945 4.88042 8.68239 4.53273 7.61267 4.56737C6.54294 4.60201 5.52057 5.0167 4.72898 5.73704L4.57498 5.88304ZM13.061 8.71104C13.2485 8.52357 13.5028 8.41826 13.768 8.41826C14.0331 8.41826 14.2875 8.52357 14.475 8.71104L18.717 12.953L19.425 12.247C20.2564 11.4162 20.7298 10.293 20.7438 9.1176C20.7578 7.94225 20.3114 6.80806 19.5 5.9576C18.6886 5.10713 17.5766 4.60791 16.4019 4.5667C15.2272 4.52548 14.083 4.94554 13.214 5.73704L13.061 5.88304L9.87898 9.06504C9.70565 9.23826 9.60196 9.46908 9.58758 9.71371C9.5732 9.95833 9.64914 10.1997 9.80098 10.392L9.87898 10.479C10.0522 10.6524 10.283 10.7561 10.5276 10.7704C10.7723 10.7848 11.0137 10.7089 11.206 10.557L11.293 10.479L13.061 8.71104Z" fill="#fff"/>
</svg>
