<svg width="22" height="20" viewBox="0 0 22 20" fill="none" xmlns="http://www.w3.org/2000/svg">
<path d="M2.16101 2.46892C3.32108 1.30865 4.87701 0.630007 6.51661 0.569171C8.15621 0.508335 9.75816 1.06981 11.001 2.14092C12.2428 1.07159 13.8426 0.510751 15.4802 0.570682C17.1179 0.630613 18.6724 1.30689 19.8327 2.46413C20.993 3.62136 21.6733 5.17414 21.7375 6.81161C21.8017 8.44907 21.2451 10.0504 20.179 11.2949L12.414 19.0849C12.0573 19.4418 11.5788 19.6506 11.0745 19.6695C10.5703 19.6885 10.0775 19.5161 9.69501 19.1869L9.58501 19.0859L1.82101 11.2949C0.755501 10.0514 0.198592 8.45163 0.261627 6.8153C0.324663 5.17898 1.003 3.62674 2.16101 2.46892ZM3.57501 3.88292C2.75725 4.70091 2.28587 5.80236 2.25868 6.95869C2.23149 8.11502 2.6506 9.23741 3.42901 10.0929L3.57501 10.2469L11 17.6719L16.303 12.3679L12.768 8.83292L11.708 9.89292C11.4295 10.1716 11.0988 10.3927 10.7348 10.5435C10.3708 10.6944 9.98072 10.7721 9.58672 10.7722C8.791 10.7724 8.0278 10.4564 7.46501 9.89392C6.90222 9.3314 6.58595 8.56834 6.58576 7.77263C6.58557 6.97691 6.90149 6.21371 7.46401 5.65092L9.56601 3.54792C8.72948 2.88029 7.68242 2.53261 6.6127 2.56725C5.54297 2.60188 4.5206 3.01658 3.72901 3.73692L3.57501 3.88292ZM12.061 6.71092C12.2485 6.52345 12.5028 6.41813 12.768 6.41813C13.0332 6.41813 13.2875 6.52345 13.475 6.71092L17.717 10.9529L18.425 10.2469C19.2565 9.41605 19.7298 8.29284 19.7438 7.11748C19.7579 5.94213 19.3114 4.80794 18.5 3.95747C17.6886 3.10701 16.5767 2.60779 15.402 2.56657C14.2272 2.52536 13.083 2.94542 12.214 3.73692L12.061 3.88292L8.87901 7.06492C8.70568 7.23813 8.60199 7.46896 8.58761 7.71358C8.57323 7.95821 8.64917 8.19959 8.80101 8.39192L8.87901 8.47892C9.05223 8.65225 9.28306 8.75595 9.52768 8.77032C9.7723 8.7847 10.0137 8.70876 10.206 8.55692L10.293 8.47892L12.061 6.71092Z" fill="#0F0F0F"/>
</svg>
