<svg width="20" height="20" viewBox="0 0 20 20" fill="none" xmlns="http://www.w3.org/2000/svg">
<path d="M10 0C15.523 0 20 4.477 20 10C20 15.523 15.523 20 10 20C4.477 20 0 15.523 0 10C0 4.477 4.477 0 10 0ZM10 2C7.87827 2 5.84344 2.84285 4.34315 4.34315C2.84285 5.84344 2 7.87827 2 10C2 12.1217 2.84285 14.1566 4.34315 15.6569C5.84344 17.1571 7.87827 18 10 18C12.1217 18 14.1566 17.1571 15.6569 15.6569C17.1571 14.1566 18 12.1217 18 10C18 7.87827 17.1571 5.84344 15.6569 4.34315C14.1566 2.84285 12.1217 2 10 2ZM10.5 5C11.2636 4.99985 12.0064 5.24945 12.6149 5.71073C13.2235 6.17202 13.6645 6.81968 13.8707 7.55495C14.0769 8.29021 14.0369 9.07274 13.757 9.7832C13.477 10.4937 12.9724 11.0931 12.32 11.49L14.868 15H12.396L10.216 12H8V15H6V5H10.5ZM10.5 7H8V10H10.5C10.8729 9.99998 11.2324 9.86108 11.5084 9.61038C11.7844 9.35968 11.9572 9.01516 11.993 8.644L12 8.5C12 8.10218 11.842 7.72064 11.5607 7.43934C11.2794 7.15804 10.8978 7 10.5 7Z" fill="#fff"/>
</svg>
