<svg width="16" height="22" viewBox="0 0 16 22" fill="none" xmlns="http://www.w3.org/2000/svg">
<path d="M13 14.245V21.117C13 21.2054 12.9766 21.2923 12.932 21.3688C12.8875 21.4452 12.8235 21.5085 12.7465 21.5521C12.6696 21.5957 12.5824 21.6181 12.4939 21.617C12.4055 21.616 12.3189 21.5914 12.243 21.546L8 19L3.757 21.546C3.68104 21.5915 3.59436 21.616 3.50581 21.617C3.41727 21.6181 3.33004 21.5956 3.25304 21.5518C3.17605 21.5081 3.11205 21.4447 3.06759 21.3681C3.02313 21.2915 2.9998 21.2045 3 21.116V14.246C1.70615 13.2101 0.765992 11.7979 0.309459 10.2045C-0.147074 8.61117 -0.0974441 6.91536 0.451491 5.35145C1.00043 3.78753 2.02156 2.43272 3.37378 1.47425C4.726 0.515784 6.34254 0.000976563 8 0.000976562C9.65746 0.000976562 11.274 0.515784 12.6262 1.47425C13.9784 2.43272 14.9996 3.78753 15.5485 5.35145C16.0974 6.91536 16.1471 8.61117 15.6905 10.2045C15.234 11.7979 14.2939 13.2101 13 14.246V14.245ZM5 15.418V18.468L8 16.668L11 18.468V15.418C10.0468 15.8035 9.02816 16.0011 8 16C6.97184 16.0011 5.95316 15.8035 5 15.418ZM8 14C9.5913 14 11.1174 13.3678 12.2426 12.2426C13.3679 11.1174 14 9.59127 14 7.99997C14 6.40868 13.3679 4.88255 12.2426 3.75733C11.1174 2.63212 9.5913 1.99997 8 1.99997C6.4087 1.99997 4.88258 2.63212 3.75736 3.75733C2.63214 4.88255 2 6.40868 2 7.99997C2 9.59127 2.63214 11.1174 3.75736 12.2426C4.88258 13.3678 6.4087 14 8 14Z" fill="black"/>
</svg>
