<svg width="125" height="40" viewBox="0 0 125 40" fill="none" xmlns="http://www.w3.org/2000/svg">
<path d="M33.6875 26.2344L35.3516 24.3984L36.0078 23.7656L40.6719 18.7266H38.9062L33.9688 24.2031H33.6094L33.6875 26.2344ZM32.4375 30H33.8438V18.7266H32.4375V30ZM39.2656 30H41.0859L36.0234 23.4062L35.0547 24.3828L39.2656 30ZM45.0859 30.1484C45.7057 30.1484 46.224 30.026 46.6406 29.7812C47.0625 29.5365 47.3776 29.1901 47.5859 28.7422H47.7109V30H49.0703V21.5781H47.7109V26.5625C47.7109 27.0521 47.625 27.4766 47.4531 27.8359C47.2812 28.1901 47.026 28.4635 46.6875 28.6562C46.349 28.849 45.9323 28.9453 45.4375 28.9453C44.7656 28.9453 44.2812 28.7604 43.9844 28.3906C43.6927 28.0208 43.5469 27.4583 43.5469 26.7031V21.5781H42.1875V27.0312C42.1875 27.6927 42.2943 28.2578 42.5078 28.7266C42.7266 29.1901 43.0521 29.5443 43.4844 29.7891C43.9167 30.0286 44.4505 30.1484 45.0859 30.1484ZM51.6094 30H52.9688V24.7812C52.9688 24.3698 53.0625 24.0104 53.25 23.7031C53.4427 23.3958 53.7057 23.1562 54.0391 22.9844C54.3724 22.8125 54.7552 22.7266 55.1875 22.7266C55.3385 22.7266 55.4792 22.7344 55.6094 22.75C55.7448 22.7604 55.8828 22.7786 56.0234 22.8047V21.4844C55.9557 21.474 55.8568 21.4635 55.7266 21.4531C55.6016 21.4375 55.474 21.4297 55.3438 21.4297C54.776 21.4297 54.2995 21.5521 53.9141 21.7969C53.5286 22.0417 53.2552 22.3854 53.0938 22.8281H52.9688V21.5781H51.6094V30ZM60.4375 30.1484C61.0781 30.1484 61.651 30.0417 62.1562 29.8281C62.6667 29.6146 63.0703 29.3177 63.3672 28.9375C63.6641 28.5521 63.8125 28.1094 63.8125 27.6094V27.5938C63.8125 26.9896 63.6172 26.5078 63.2266 26.1484C62.8411 25.7891 62.2526 25.513 61.4609 25.3203L60.1641 25.0078C59.6693 24.888 59.3099 24.7344 59.0859 24.5469C58.862 24.3594 58.75 24.1224 58.75 23.8359V23.8203C58.75 23.5703 58.8255 23.3516 58.9766 23.1641C59.1276 22.9766 59.3333 22.8307 59.5938 22.7266C59.8542 22.6172 60.151 22.5625 60.4844 22.5625C60.9948 22.5625 61.4089 22.6667 61.7266 22.875C62.0443 23.0833 62.2474 23.3542 62.3359 23.6875H63.6719C63.6094 23.2292 63.4375 22.8307 63.1562 22.4922C62.8802 22.1536 62.513 21.8932 62.0547 21.7109C61.6016 21.5234 61.0807 21.4297 60.4922 21.4297C59.8984 21.4297 59.3646 21.5365 58.8906 21.75C58.4167 21.9635 58.0417 22.2552 57.7656 22.625C57.4948 22.9948 57.3594 23.4141 57.3594 23.8828V23.8906C57.3594 24.4948 57.5443 24.9792 57.9141 25.3438C58.2839 25.7031 58.862 25.9766 59.6484 26.1641L60.9531 26.4766C61.474 26.6016 61.849 26.7656 62.0781 26.9688C62.3073 27.1667 62.4219 27.4089 62.4219 27.6953V27.7109C62.4219 27.9661 62.3385 28.1927 62.1719 28.3906C62.0052 28.5833 61.776 28.737 61.4844 28.8516C61.1979 28.9609 60.8646 29.0156 60.4844 29.0156C59.9479 29.0156 59.513 28.9089 59.1797 28.6953C58.8464 28.4818 58.6224 28.2005 58.5078 27.8516H57.1172C57.1693 28.3151 57.3385 28.7188 57.625 29.0625C57.9167 29.4062 58.3021 29.6745 58.7812 29.8672C59.2604 30.0547 59.8125 30.1484 60.4375 30.1484ZM70.5 30H71.8594V25.0156C71.8594 24.5208 71.9479 24.0964 72.125 23.7422C72.3073 23.388 72.5625 23.1146 72.8906 22.9219C73.2188 22.7292 73.6068 22.6328 74.0547 22.6328C74.7266 22.6328 75.2214 22.8177 75.5391 23.1875C75.862 23.5521 76.0234 24.1146 76.0234 24.875V30H77.3828V24.5469C77.3828 23.8802 77.2682 23.3151 77.0391 22.8516C76.8099 22.388 76.4766 22.0365 76.0391 21.7969C75.6016 21.5521 75.0677 21.4297 74.4375 21.4297C73.8177 21.4297 73.3073 21.5547 72.9062 21.8047C72.5052 22.0495 72.1979 22.3958 71.9844 22.8438H71.8594V18.2344H70.5V30ZM82.1562 30.1484C82.5365 30.1484 82.8854 30.0964 83.2031 29.9922C83.5208 29.8828 83.8047 29.724 84.0547 29.5156C84.3099 29.3073 84.526 29.0547 84.7031 28.7578H84.8281V30H86.1875V24.2344C86.1875 23.651 86.0625 23.151 85.8125 22.7344C85.5677 22.3125 85.2057 21.9896 84.7266 21.7656C84.2526 21.5417 83.6719 21.4297 82.9844 21.4297C82.3854 21.4297 81.8516 21.5234 81.3828 21.7109C80.9141 21.8932 80.5312 22.151 80.2344 22.4844C79.9427 22.8125 79.7604 23.1979 79.6875 23.6406L79.6797 23.6875H81.0391L81.0469 23.6641C81.1562 23.3359 81.3724 23.0833 81.6953 22.9062C82.0182 22.724 82.4323 22.6328 82.9375 22.6328C83.5677 22.6328 84.0391 22.7708 84.3516 23.0469C84.6693 23.3177 84.8281 23.7135 84.8281 24.2344V26.8594C84.8281 27.2604 84.724 27.6198 84.5156 27.9375C84.3125 28.2552 84.0312 28.5078 83.6719 28.6953C83.3125 28.8776 82.901 28.9688 82.4375 28.9688C81.9479 28.9688 81.5417 28.8516 81.2188 28.6172C80.8958 28.3776 80.7344 28.0443 80.7344 27.6172V27.6016C80.7344 27.1849 80.8802 26.862 81.1719 26.6328C81.4688 26.4036 81.9375 26.2708 82.5781 26.2344L85.5078 26.0469V24.9609L82.4141 25.1484C81.4349 25.2057 80.6771 25.4479 80.1406 25.875C79.6094 26.2969 79.3438 26.8828 79.3438 27.6328V27.6484C79.3438 28.1589 79.4661 28.6016 79.7109 28.9766C79.9609 29.3516 80.2969 29.6406 80.7188 29.8438C81.1458 30.0469 81.625 30.1484 82.1562 30.1484ZM94.5469 32.8125H95.9062V21.5781H94.5469V22.9844H94.4531C94.276 22.6667 94.0495 22.3906 93.7734 22.1562C93.5026 21.9219 93.1979 21.7422 92.8594 21.6172C92.526 21.4922 92.1693 21.4297 91.7891 21.4297C91.0755 21.4297 90.4531 21.6094 89.9219 21.9688C89.3906 22.3281 88.9792 22.8333 88.6875 23.4844C88.3958 24.1354 88.25 24.901 88.25 25.7812V25.7969C88.25 26.6719 88.3958 27.4375 88.6875 28.0938C88.9792 28.7448 89.3906 29.25 89.9219 29.6094C90.4531 29.9688 91.0755 30.1484 91.7891 30.1484C92.1901 30.1484 92.5599 30.0938 92.8984 29.9844C93.2422 29.8698 93.5443 29.7083 93.8047 29.5C94.0651 29.2865 94.2708 29.0312 94.4219 28.7344H94.5469V32.8125ZM92.1094 28.9453C91.5938 28.9453 91.151 28.8203 90.7812 28.5703C90.4167 28.3151 90.1354 27.9531 89.9375 27.4844C89.7396 27.0104 89.6406 26.4479 89.6406 25.7969V25.7812C89.6406 25.125 89.737 24.5625 89.9297 24.0938C90.1276 23.625 90.4115 23.2656 90.7812 23.0156C91.151 22.7604 91.5911 22.6328 92.1016 22.6328C92.612 22.6328 93.0521 22.7604 93.4219 23.0156C93.7917 23.2708 94.0781 23.6354 94.2812 24.1094C94.4844 24.5781 94.5859 25.1354 94.5859 25.7812V25.7969C94.5859 26.4375 94.4844 26.9948 94.2812 27.4688C94.0781 27.9375 93.7917 28.3021 93.4219 28.5625C93.0521 28.8177 92.6146 28.9453 92.1094 28.9453ZM98.4531 30H99.8125V21.5781H98.4531V30ZM99.1406 19.9531C99.401 19.9531 99.6224 19.862 99.8047 19.6797C99.987 19.4922 100.078 19.2708 100.078 19.0156C100.078 18.7552 99.987 18.5339 99.8047 18.3516C99.6224 18.1693 99.401 18.0781 99.1406 18.0781C98.8854 18.0781 98.6641 18.1693 98.4766 18.3516C98.2943 18.5339 98.2031 18.7552 98.2031 19.0156C98.2031 19.2708 98.2943 19.4922 98.4766 19.6797C98.6641 19.862 98.8854 19.9531 99.1406 19.9531ZM105.484 30.1484C106.073 30.1484 106.594 30.0182 107.047 29.7578C107.5 29.4922 107.854 29.125 108.109 28.6562H108.234V30H109.594V18.2344H108.234V22.9062H108.109C107.88 22.4583 107.529 22.1016 107.055 21.8359C106.586 21.5651 106.062 21.4297 105.484 21.4297C104.771 21.4297 104.148 21.6094 103.617 21.9688C103.091 22.3281 102.682 22.8333 102.391 23.4844C102.099 24.1354 101.953 24.901 101.953 25.7812V25.7969C101.953 26.6719 102.099 27.4375 102.391 28.0938C102.682 28.7448 103.094 29.25 103.625 29.6094C104.156 29.9688 104.776 30.1484 105.484 30.1484ZM105.797 28.9453C105.286 28.9453 104.846 28.8203 104.477 28.5703C104.112 28.3151 103.831 27.9531 103.633 27.4844C103.44 27.0104 103.344 26.4479 103.344 25.7969V25.7812C103.344 25.125 103.44 24.5625 103.633 24.0938C103.831 23.625 104.112 23.2656 104.477 23.0156C104.846 22.7604 105.286 22.6328 105.797 22.6328C106.307 22.6328 106.747 22.7604 107.117 23.0156C107.487 23.2708 107.771 23.6328 107.969 24.1016C108.167 24.5703 108.266 25.1302 108.266 25.7812V25.7969C108.266 26.4427 108.167 27.0026 107.969 27.4766C107.771 27.9453 107.487 28.3073 107.117 28.5625C106.747 28.8177 106.307 28.9453 105.797 28.9453ZM114.516 30.1484C114.896 30.1484 115.245 30.0964 115.562 29.9922C115.88 29.8828 116.164 29.724 116.414 29.5156C116.669 29.3073 116.885 29.0547 117.062 28.7578H117.188V30H118.547V24.2344C118.547 23.651 118.422 23.151 118.172 22.7344C117.927 22.3125 117.565 21.9896 117.086 21.7656C116.612 21.5417 116.031 21.4297 115.344 21.4297C114.745 21.4297 114.211 21.5234 113.742 21.7109C113.273 21.8932 112.891 22.151 112.594 22.4844C112.302 22.8125 112.12 23.1979 112.047 23.6406L112.039 23.6875H113.398L113.406 23.6641C113.516 23.3359 113.732 23.0833 114.055 22.9062C114.378 22.724 114.792 22.6328 115.297 22.6328C115.927 22.6328 116.398 22.7708 116.711 23.0469C117.029 23.3177 117.188 23.7135 117.188 24.2344V26.8594C117.188 27.2604 117.083 27.6198 116.875 27.9375C116.672 28.2552 116.391 28.5078 116.031 28.6953C115.672 28.8776 115.26 28.9688 114.797 28.9688C114.307 28.9688 113.901 28.8516 113.578 28.6172C113.255 28.3776 113.094 28.0443 113.094 27.6172V27.6016C113.094 27.1849 113.24 26.862 113.531 26.6328C113.828 26.4036 114.297 26.2708 114.938 26.2344L117.867 26.0469V24.9609L114.773 25.1484C113.794 25.2057 113.036 25.4479 112.5 25.875C111.969 26.2969 111.703 26.8828 111.703 27.6328V27.6484C111.703 28.1589 111.826 28.6016 112.07 28.9766C112.32 29.3516 112.656 29.6406 113.078 29.8438C113.505 30.0469 113.984 30.1484 114.516 30.1484ZM121.602 26.25H122.898L123.031 18.7188H121.469L121.602 26.25ZM122.258 30.1406C122.576 30.1406 122.833 30.0391 123.031 29.8359C123.234 29.6328 123.336 29.3724 123.336 29.0547C123.336 28.7318 123.234 28.4688 123.031 28.2656C122.833 28.0625 122.576 27.9609 122.258 27.9609C121.94 27.9609 121.68 28.0625 121.477 28.2656C121.273 28.4688 121.172 28.7318 121.172 29.0547C121.172 29.3724 121.273 29.6328 121.477 29.8359C121.68 30.0391 121.94 30.1406 122.258 30.1406Z" fill="#28468C"/>
<path d="M38 13.825C35.4351 6.36286 28.351 1 20.0133 1C9.51257 1 1 9.50659 1 20C1 30.4934 9.51256 39 20.0133 39C24.5713 39 28.7547 37.3973 32.03 34.725" stroke="#28468C" stroke-width="2" stroke-linecap="round"/>
<path d="M16 27L16 14L26 20.5L16 27Z" fill="#28468C"/>
</svg>
