<svg xmlns="http://www.w3.org/2000/svg" width="126" height="28" viewBox="0 0 126 28" fill="none">
	<path d="M10.8294 2.7998L8.61444 15.2999C8.55115 15.6341 8.51951 15.9787 8.51951 16.3338C8.51951 17.0439 8.70936 17.6078 9.08907 18.0255C9.46878 18.4224 10.07 18.6208 10.8927 18.6208C11.9052 18.6208 12.7068 18.3284 13.2975 17.7436C13.8881 17.1379 14.2784 16.3233 14.4683 15.2999L16.6832 2.7998H23.6761L21.4612 15.2999C21.0815 17.4721 20.3221 19.2996 19.1829 20.7825C18.0649 22.2654 16.6832 23.3723 15.0378 24.1033C13.4135 24.8343 11.6204 25.1998 9.65863 25.1998C7.14834 25.1998 5.14433 24.5523 3.6466 23.2574C2.14887 21.9416 1.4 20.0723 1.4 17.6496C1.4 16.8768 1.47383 16.0936 1.6215 15.2999L3.83646 2.7998H10.8294Z" fill="#E20001" />
	<path d="M44.9659 24.9805H37.9413L32.4989 13.8275L30.5054 24.9805H23.4808L27.4361 2.7998H34.4607L39.8715 14.1408L41.8966 2.7998H48.9212L44.9659 24.9805Z" fill="#E20001" />
	<path d="M59.8496 2.7998L55.8943 24.9805H48.8697L52.825 2.7998H59.8496Z" fill="#E20001" />
	<path d="M74.1944 2.7998C76.5992 2.7998 78.4239 3.33239 79.6685 4.39757C80.9131 5.46274 81.5354 6.88297 81.5354 8.65826C81.5354 9.18041 81.4932 9.65034 81.4088 10.0681C81.1346 11.5718 80.4806 12.8981 79.447 14.0468C78.4133 15.1746 77.0738 15.9892 75.4284 16.4904L78.7825 24.9805H71.0618L68.2456 17.023L66.8217 24.9805H59.7971L63.7524 2.7998H74.1944ZM69.0683 12.3864H71.8528C72.5279 12.3864 73.0553 12.2402 73.435 11.9478C73.8358 11.6345 74.0994 11.1541 74.226 10.5067C74.2471 10.4022 74.2577 10.2665 74.2577 10.0994C74.2577 9.6399 74.11 9.28484 73.8147 9.03421C73.5193 8.76269 73.0869 8.62694 72.5173 8.62694H69.7328L69.0683 12.3864Z" fill="#E20001" />
	<path d="M91.7241 8.31365L91.2495 11.0706H98.2108L97.2615 16.3025H90.3002L89.7307 19.4353H97.6412L96.6603 24.9805H81.7252L85.6805 2.7998H100.616L99.6347 8.31365H91.7241Z" fill="#E20001" />
	<path d="M113.328 2.7998C115.395 2.7998 117.167 3.17575 118.644 3.92763C120.12 4.65864 121.249 5.69248 122.029 7.02917C122.81 8.34498 123.2 9.86964 123.2 11.6032C123.2 12.2924 123.137 13.0338 123.01 13.8275C122.63 15.937 121.808 17.8376 120.542 19.5293C119.297 21.2211 117.705 22.5578 115.764 23.5394C113.844 24.5001 111.714 24.9805 109.372 24.9805H100.038L103.993 2.7998H113.328ZM109.847 18.7774C111.429 18.7774 112.758 18.3493 113.834 17.4929C114.931 16.6366 115.616 15.4148 115.891 13.8275C115.954 13.4098 115.986 13.0234 115.986 12.6683C115.986 11.4361 115.595 10.4962 114.815 9.84875C114.055 9.2013 112.99 8.87757 111.619 8.87757H109.942L108.17 18.7774H109.847Z" fill="#E20001" />
</svg>
